<svg width="50" height="50" viewBox="0 0 50 50" fill="none" xmlns="http://www.w3.org/2000/svg">
<path fill-rule="evenodd" clip-rule="evenodd" d="M7.06688 4.73993C10.3977 1.59419 14.95 0 20 0C22.9967 0 25.5544 0.449628 27.7818 1.40453C30.0485 2.37632 31.6691 3.74163 32.934 5.12221C33.751 6.01383 34.5773 7.11565 35.202 7.94854C35.4121 8.22875 35.5995 8.47853 35.7559 8.67961C36.5115 9.65071 37.1751 10.3821 37.9976 10.9982C39.0668 11.7991 40.1205 12.4158 41.32 13.1101C41.3718 13.1401 41.4245 13.1705 41.4778 13.2014C42.5574 13.8255 43.9412 14.6255 45.1696 15.6309C46.567 16.7748 47.8694 18.2548 48.7681 20.3059C49.642 22.3003 50 24.529 50 27C50 32.4152 48.471 37.2352 44.709 40.6012C41.0537 43.8717 36.1346 45 31 45C30.965 45 30.9341 44.9988 30.9057 44.9977C30.6161 44.9866 30.578 44.9852 28.9509 46.3411C28.1012 47.0492 26.8578 48.0369 25.1432 48.7933C23.3885 49.5675 21.3806 50 19 50C14.625 50 10.0683 48.7648 6.46881 46.1937C2.76796 43.5502 0 39.3867 0 34C0 29.8931 1.11163 27.5124 2.21254 25.6775C2.87068 24.5806 2.98462 24.4053 3.0004 24.2216C3.00568 24.1602 3 24.0979 3 24C3 23.0665 2.85083 22.2526 2.61906 21.2097C2.59795 21.1146 2.57408 21.0103 2.54831 20.8977C2.33769 19.9774 2 18.5018 2 17C2 12.2659 3.7183 7.90248 7.06688 4.73993ZM20 5C12 5 7 10 7 17C7 17.899 7.20204 18.798 7.42449 19.7878C7.69694 21 8 22.3485 8 24C8 25.798 7.39388 26.7878 6.72652 27.8775C5.90918 29.2122 5 30.6969 5 34C5 41 12 45 19 45C22.7937 45 24.5314 43.5314 26.1232 42.186C27.4686 41.049 28.7098 40 31 40C40 40 45 36 45 27C45 21.0171 42.3937 19.5086 38.8457 17.4551C37.6496 16.7628 36.3464 16.0085 35 15C33.2588 13.6957 32.1214 12.1788 31.0326 10.7265C28.7823 7.72505 26.7393 5 20 5Z" fill="white" fill-opacity="0.1"/>
<path d="M7 17C7 10 12 5 20 5C30 5 29.66 11 35 15C40.34 19 45 19 45 27C45 36 40 40 31 40C26 40 26 45 19 45C12 45 5 41 5 34C5 28 8 28 8 24C8 21 7 19 7 17Z" fill="#FEFEFE" stroke="black" stroke-width="4" stroke-linecap="round" stroke-linejoin="round"/>
<path d="M24 33C27.866 33 31 29.866 31 26C31 22.134 27.866 19 24 19C20.134 19 17 22.134 17 26C17 29.866 20.134 33 24 33Z" fill="#FFC700" stroke="black" stroke-width="3" stroke-linecap="round" stroke-linejoin="round"/>
</svg>
